<?xml version="1.0" encoding="UTF-8" standalone="no"?>
<!DOCTYPE svg PUBLIC "-//W3C//DTD SVG 1.1//EN" "http://www.w3.org/Graphics/SVG/1.1/DTD/svg11.dtd">
<svg width="100%" height="100%" viewBox="0 0 3200 800" version="1.1" xmlns="http://www.w3.org/2000/svg" xmlns:xlink="http://www.w3.org/1999/xlink" xml:space="preserve" xmlns:serif="http://www.serif.com/" style="fill-rule:evenodd;clip-rule:evenodd;stroke-linecap:round;stroke-linejoin:round;stroke-miterlimit:1.5;">
    <g>
        <g>
            <g>
                <path d="M2163.84,92.054c-18.851,-18.36 -49.338,-18.36 -68.189,-0l-181.826,178.312c-6.29,6.12 -16.433,6.12 -22.723,0c-3.004,-2.928 -4.704,-6.951 -4.704,-11.144c0,-4.194 1.7,-8.217 4.704,-11.145l181.825,-178.312c31.432,-30.582 82.205,-30.582 113.637,-0c17.831,17.34 26.312,42.236 22.742,66.867c24.934,-3.551 50.15,4.703 68.17,22.289l0.945,0.944c15.036,14.62 23.536,34.737 23.536,55.723c-0,20.986 -8.5,41.103 -23.536,55.723l-164.448,161.255c-1.001,0.982 -1.568,2.324 -1.568,3.721c0,1.379 0.567,2.72 1.568,3.703l33.774,33.131c3.003,2.928 4.703,6.951 4.703,11.144c0,4.194 -1.7,8.217 -4.703,11.145c-6.29,6.12 -16.434,6.12 -22.724,-0l-33.773,-33.112c-7.027,-6.819 -10.994,-16.207 -10.994,-26.011c0,-9.803 3.967,-19.191 10.994,-26.01l164.447,-161.274c9.029,-8.784 14.111,-20.854 14.111,-33.434c-0,-12.58 -5.082,-24.65 -14.111,-33.433l-0.944,-0.926c-18.832,-18.341 -49.263,-18.36 -68.133,-0.057l-135.472,132.866l-1.889,1.87c-6.29,6.12 -16.452,6.12 -22.742,-0c-3.003,-2.928 -4.703,-6.951 -4.703,-11.145c-0,-4.193 1.7,-8.217 4.703,-11.144l137.38,-134.736c8.991,-8.783 14.053,-20.815 14.053,-33.377c0,-12.58 -5.081,-24.65 -14.11,-33.433Z" style="fill:#fff;"/>
            </g>
            <g>
                <path d="M2141.12,136.632c3.003,-2.928 4.703,-6.951 4.703,-11.145c0,-4.193 -1.7,-8.216 -4.703,-11.144c-6.29,-6.12 -16.453,-6.12 -22.743,-0l-134.471,131.883c-15.035,14.62 -23.535,34.737 -23.535,55.723c-0,20.985 8.5,41.102 23.535,55.722c31.432,30.582 82.205,30.582 113.637,0l134.489,-131.883c3.004,-2.928 4.704,-6.951 4.704,-11.144c-0,-4.194 -1.7,-8.217 -4.704,-11.145c-6.29,-6.12 -16.452,-6.12 -22.742,0l-134.471,131.883c-18.851,18.36 -49.338,18.36 -68.189,0c-9.029,-8.783 -14.11,-20.853 -14.11,-33.433c-0,-12.58 5.081,-24.651 14.11,-33.434l134.49,-131.883Z" style="fill:#fff;"/>
            </g>
        </g>
        <g>
            <g>
                <g transform="matrix(1,0,0,0.867842,1.13687e-13,97.3443)">
                    <text x="973.267px" y="736.576px" style="font-family:'JetBrainsMono-Regular', 'JetBrains Mono', monospace;font-size:277.982px;fill:#fff;">r</text>
                </g>
                <g transform="matrix(1,0,0,0.867842,0,97.3443)">
                    <text x="1153.95px" y="736.576px" style="font-family:'JetBrainsMono-Regular', 'JetBrains Mono', monospace;font-size:277.982px;fill:#fff;">o<tspan x="1334.64px " y="736.576px ">s</tspan></text>
                </g>
            </g>
            <g transform="matrix(1,0,0,0.867842,0,97.3443)">
                <text x="1515.33px" y="736.576px" style="font-family:'JetBrainsMono-Regular', 'JetBrains Mono', monospace;font-size:277.982px;fill:#78c0ff;">2</text>
            </g>
            <g>
                <g transform="matrix(1,0,0,0.867842,0,97.3443)">
                    <text x="1696.02px" y="736.576px" style="font-family:'JetBrainsMono-Regular', 'JetBrains Mono', monospace;font-size:277.982px;fill:#fff;">m</text>
                </g>
                <g transform="matrix(1,0,0,0.867842,0,97.3443)">
                    <text x="1876.71px" y="736.576px" style="font-family:'JetBrainsMono-Regular', 'JetBrains Mono', monospace;font-size:277.982px;fill:#fff;">c<tspan x="2057.39px " y="736.576px ">p</tspan></text>
                </g>
            </g>
        </g>
        <g>
            <g id="path39880">
                <path d="M990.607,110.418c-0,26.414 -20.724,47.828 -46.285,47.828c-25.557,-0 -46.279,-21.414 -46.279,-47.828c0,-26.409 20.724,-47.827 46.279,-47.827c25.561,-0 46.285,21.418 46.285,47.827Z" style="fill:#fff;fill-rule:nonzero;"/>
            </g>
            <g id="path39882">
                <path d="M990.607,273.407c-0,26.414 -20.724,47.828 -46.285,47.828c-25.557,-0 -46.279,-21.414 -46.279,-47.828c0,-26.414 20.724,-47.827 46.279,-47.827c25.561,-0 46.285,21.413 46.285,47.827Z" style="fill:#fff;fill-rule:nonzero;"/>
            </g>
            <g id="path39884">
                <path d="M990.607,436.399c-0,26.409 -20.724,47.827 -46.285,47.827c-25.557,0 -46.279,-21.418 -46.279,-47.827c0,-26.409 20.724,-47.828 46.279,-47.828c25.561,0 46.285,21.416 46.285,47.828Z" style="fill:#fff;fill-rule:nonzero;"/>
            </g>
            <g id="path39886">
                <path d="M1152.11,273.407c-0,26.414 -20.724,47.828 -46.284,47.828c-25.558,-0 -46.28,-21.414 -46.28,-47.828c0,-26.414 20.724,-47.827 46.28,-47.827c25.56,-0 46.284,21.413 46.284,47.827Z" style="fill:#fff;fill-rule:nonzero;"/>
            </g>
            <g id="path39888">
                <path d="M1152.11,110.418c-0,26.414 -20.724,47.828 -46.284,47.828c-25.558,-0 -46.28,-21.414 -46.28,-47.828c0,-26.409 20.724,-47.827 46.28,-47.827c25.56,-0 46.284,21.418 46.284,47.827Z" style="fill:#fff;fill-rule:nonzero;"/>
            </g>
            <g id="path39890">
                <path d="M1313.61,273.407c-0,26.414 -20.724,47.828 -46.284,47.828c-25.558,-0 -46.28,-21.414 -46.28,-47.828c0,-26.414 20.724,-47.827 46.28,-47.827c25.562,-0 46.284,21.413 46.284,47.827Z" style="fill:#fff;fill-rule:nonzero;"/>
            </g>
            <g id="path39892">
                <path d="M1313.61,110.418c-0,26.414 -20.724,47.828 -46.284,47.828c-25.558,-0 -46.28,-21.414 -46.28,-47.828c0,-26.409 20.724,-47.827 46.28,-47.827c25.562,-0 46.284,21.418 46.284,47.827Z" style="fill:#fff;fill-rule:nonzero;"/>
            </g>
            <g id="path39894">
                <path d="M1313.61,436.399c-0,26.409 -20.724,47.827 -46.284,47.827c-25.558,0 -46.28,-21.418 -46.28,-47.827c0,-26.409 20.724,-47.828 46.28,-47.828c25.562,0 46.284,21.416 46.284,47.828Z" style="fill:#fff;fill-rule:nonzero;"/>
            </g>
            <g id="path39896">
                <path d="M1152.11,436.399c-0,26.409 -20.724,47.827 -46.284,47.827c-25.558,0 -46.28,-21.418 -46.28,-47.827c0,-26.409 20.724,-47.828 46.28,-47.828c25.56,0 46.284,21.416 46.284,47.828Z" style="fill:#fff;fill-rule:nonzero;"/>
            </g>
        </g>
        <g>
            <g>
                <path d="M1523.48,194.477l157.869,157.87" style="fill:none;stroke:#78c0ff;stroke-width:12px;"/>
            </g>
            <g>
                <path d="M1681.35,194.48l-157.87,157.87" style="fill:none;stroke:#78c0ff;stroke-width:12px;"/>
            </g>
        </g>
    </g>
</svg>
