<?xml version="1.0" encoding="UTF-8" standalone="no"?>
<!DOCTYPE svg PUBLIC "-//W3C//DTD SVG 1.1//EN" "http://www.w3.org/Graphics/SVG/1.1/DTD/svg11.dtd">
<svg width="100%" height="100%" viewBox="0 0 656 368" version="1.1" xmlns="http://www.w3.org/2000/svg" xmlns:xlink="http://www.w3.org/1999/xlink" xml:space="preserve" xmlns:serif="http://www.serif.com/" style="fill-rule:evenodd;clip-rule:evenodd;stroke-linecap:round;stroke-miterlimit:10;">
    <rect id="Artboard1" x="0" y="0" width="656" height="368" style="fill:none;"/>
    <g id="Artboard11" serif:id="Artboard1">
        <path d="M338.439,95.87l4.5,4.5l-4.5,4.5" style="fill:none;stroke:#78c0ff;stroke-width:1.5px;"/>
        <path d="M312,64l16,0.37l0,36l14.939,-0" style="fill:none;stroke:#78c0ff;stroke-width:1.5px;stroke-linejoin:round;stroke-miterlimit:1.5;"/>
        <path d="M338.439,287.87l4.5,4.5l-4.5,4.5" style="fill:none;stroke:#78c0ff;stroke-width:1.5px;"/>
        <path d="M312,256.37l16,-0l0,36l14.939,-0" style="fill:none;stroke:#78c0ff;stroke-width:1.5px;stroke-linejoin:round;stroke-miterlimit:1.5;"/>
        <path d="M304,8.74c4.418,-0 8,3.581 8,8c0,20.503 0,74.756 0,95.26c0,4.418 -3.582,8 -8,8c-42.877,0 -245.123,0 -288,0c-4.418,-0 -8,-3.582 -8,-8c0,-20.504 0,-74.757 0,-95.26c-0,-4.419 3.582,-8 8,-8c42.877,-0 245.123,-0 288,-0Z" style="fill:#0d1116;"/>
        <clipPath id="_clip1">
            <path d="M304,8.74c4.418,-0 8,3.581 8,8c0,20.503 0,74.756 0,95.26c0,4.418 -3.582,8 -8,8c-42.877,0 -245.123,0 -288,0c-4.418,-0 -8,-3.582 -8,-8c0,-20.504 0,-74.757 0,-95.26c-0,-4.419 3.582,-8 8,-8c42.877,-0 245.123,-0 288,-0Z"/>
        </clipPath>
        <g clip-path="url(#_clip1)">
            <g id="Content" transform="matrix(1,0,0,1,-16,-24)">
                <g transform="matrix(9,0,0,9,32,70.984)">
                    <path d="M0.189,0.1l0.025,-0.217l0.148,0l-0.025,0.217l0.085,0l0.024,-0.217l0.355,0l0,-0.081l-0.346,-0l0.027,-0.234l0.355,-0l-0,-0.082l-0.346,0l0.024,-0.216l-0.084,-0l-0.024,0.216l-0.148,0l0.024,-0.216l-0.084,-0l-0.025,0.216l-0.103,0l-0,0.082l0.094,-0l-0.026,0.234l-0.104,-0l-0,0.081l0.095,0l-0.025,0.217l0.084,0Zm0.034,-0.298l0.027,-0.234l0.148,-0l-0.027,0.234l-0.148,-0Z" style="fill:#8b949e;fill-rule:nonzero;"/>
                </g>
                <g transform="matrix(9,0,0,9,32,70.984)">
                </g>
                <text x="43.16px" y="70.984px" style="font-family:'MonaspaceNeon-Regular', 'Monaspace Neon', monospace;font-size:9px;fill:#8b949e;">Create a new waypoint at the current robot</text>
                <text x="32px" y="84.484px" style="font-family:'MonaspaceNeon-Regular', 'Monaspace Neon', monospace;font-size:9px;fill:#8b949e;">position</text>
                <text x="32px" y="111.484px" style="font-family:'MonaspaceNeon-Regular', 'Monaspace Neon', monospace;font-size:9px;fill:#ff7b72;">string</text>
                <text x="71.06px" y="111.484px" style="font-family:'MonaspaceNeon-Regular', 'Monaspace Neon', monospace;font-size:9px;fill:#79c0ff;">name</text>
                <g transform="matrix(9,0,0,9,98.96,111.484)">
                    <path d="M0.189,0.1l0.025,-0.217l0.148,0l-0.025,0.217l0.085,0l0.024,-0.217l0.355,0l0,-0.081l-0.346,-0l0.027,-0.234l0.355,-0l-0,-0.082l-0.346,0l0.024,-0.216l-0.084,-0l-0.024,0.216l-0.148,0l0.024,-0.216l-0.084,-0l-0.025,0.216l-0.103,0l-0,0.082l0.094,-0l-0.026,0.234l-0.104,-0l-0,0.081l0.095,0l-0.025,0.217l0.084,0Zm0.034,-0.298l0.027,-0.234l0.148,-0l-0.027,0.234l-0.148,-0Z" style="fill:#8b949e;fill-rule:nonzero;"/>
                </g>
                <g transform="matrix(9,0,0,9,98.96,111.484)">
                </g>
                <text x="110.12px" y="111.484px" style="font-family:'MonaspaceNeon-Regular', 'Monaspace Neon', monospace;font-size:9px;fill:#8b949e;">name of the waypoint</text>
                <text x="32px" y="124.984px" style="font-family:'MonaspaceNeon-Regular', 'Monaspace Neon', monospace;font-size:9px;fill:#ff7b72;">string</text>
                <text x="71.06px" y="124.984px" style="font-family:'MonaspaceNeon-Regular', 'Monaspace Neon', monospace;font-size:9px;fill:#79c0ff;">details</text>
                <text x="32px" y="138.484px" style="font-family:'MonaspaceNeon-Regular', 'Monaspace Neon', monospace;font-size:9px;fill:#ff7b72;">---</text>
            </g>
            <g id="Content1" serif:id="Content" transform="matrix(9,0,0,9,71.06,24)">
                <rect x="0.045" y="0.115" width="0.404" height="0.065" style="fill:#8b949e;fill-rule:nonzero;"/>
            </g>
            <g transform="matrix(9,0,0,9,71.06,24)">
            </g>
            <g transform="matrix(9,0,0,9,76.64,24)">
                <path d="M-0.044,-0.514l0.136,0.514l0.078,-0l0.109,-0.313l0.006,-0l0.104,0.313l0.083,-0l0.135,-0.514l-0.088,0l-0.094,0.372l-0.009,-0l-0.098,-0.296l-0.062,0l-0.104,0.296l-0.008,-0l-0.095,-0.372l-0.093,0Z" style="fill:#8b949e;fill-rule:nonzero;"/>
            </g>
            <g transform="matrix(9,0,0,9,76.64,24)">
            </g>
            <g transform="matrix(9,0,0,9,283.1,24)">
            </g>
            <text x="32px" y="24px" style="font-family:'MonaspaceNeon-Regular', 'Monaspace Neon', monospace;font-size:9px;fill:#8b949e;">/create<tspan x="82.22px " y="24px ">a</tspan>ypoint CreateWaypoint.srv (Service)</text>
            <g>
                <path id="path39880" d="M17.756,16.907c0,0.502 -0.393,0.908 -0.878,0.908c-0.485,-0 -0.878,-0.406 -0.878,-0.908c0,-0.501 0.393,-0.907 0.878,-0.907c0.485,0 0.878,0.406 0.878,0.907Z" style="fill:#8b949e;fill-rule:nonzero;"/>
                <path id="path39882" d="M17.756,20c0,0.501 -0.393,0.907 -0.878,0.907c-0.485,0 -0.878,-0.406 -0.878,-0.907c0,-0.501 0.393,-0.907 0.878,-0.907c0.485,-0 0.878,0.406 0.878,0.907Z" style="fill:#8b949e;fill-rule:nonzero;"/>
                <path id="path39884" d="M17.756,23.093c0,0.501 -0.393,0.907 -0.878,0.907c-0.485,0 -0.878,-0.406 -0.878,-0.907c0,-0.502 0.393,-0.908 0.878,-0.908c0.485,0 0.878,0.406 0.878,0.908Z" style="fill:#8b949e;fill-rule:nonzero;"/>
                <path id="path39886" d="M20.821,20c-0,0.501 -0.394,0.907 -0.879,0.907c-0.485,0 -0.878,-0.406 -0.878,-0.907c0,-0.501 0.393,-0.907 0.878,-0.907c0.485,-0 0.879,0.406 0.879,0.907Z" style="fill:#8b949e;fill-rule:nonzero;"/>
                <path id="path39888" d="M20.821,16.907c-0,0.502 -0.394,0.908 -0.879,0.908c-0.485,-0 -0.878,-0.406 -0.878,-0.908c0,-0.501 0.393,-0.907 0.878,-0.907c0.485,0 0.879,0.406 0.879,0.907Z" style="fill:#8b949e;fill-rule:nonzero;"/>
                <path id="path39890" d="M23.885,20c-0,0.501 -0.393,0.907 -0.878,0.907c-0.485,0 -0.878,-0.406 -0.878,-0.907c-0,-0.501 0.393,-0.907 0.878,-0.907c0.485,-0 0.878,0.406 0.878,0.907Z" style="fill:#8b949e;fill-rule:nonzero;"/>
                <path id="path39892" d="M23.885,16.907c-0,0.502 -0.393,0.908 -0.878,0.908c-0.485,-0 -0.878,-0.406 -0.878,-0.908c-0,-0.501 0.393,-0.907 0.878,-0.907c0.485,0 0.878,0.406 0.878,0.907Z" style="fill:#8b949e;fill-rule:nonzero;"/>
                <path id="path39894" d="M23.885,23.093c-0,0.501 -0.393,0.907 -0.878,0.907c-0.485,0 -0.878,-0.406 -0.878,-0.907c-0,-0.502 0.393,-0.908 0.878,-0.908c0.485,0 0.878,0.406 0.878,0.908Z" style="fill:#8b949e;fill-rule:nonzero;"/>
                <path id="path39896" d="M20.821,23.093c-0,0.501 -0.394,0.907 -0.879,0.907c-0.485,0 -0.878,-0.406 -0.878,-0.907c0,-0.502 0.393,-0.908 0.878,-0.908c0.485,0 0.879,0.406 0.879,0.908Z" style="fill:#8b949e;fill-rule:nonzero;"/>
            </g>
            <path id="Divider" d="M8,32l304,0" style="fill:none;stroke:#30363d;stroke-width:1px;stroke-linejoin:round;stroke-miterlimit:1.5;"/>
        </g>
        <path d="M304,8.74c4.418,-0 8,3.581 8,8c0,20.503 0,74.756 0,95.26c0,4.418 -3.582,8 -8,8c-42.877,0 -245.123,0 -288,0c-4.418,-0 -8,-3.582 -8,-8c0,-20.504 0,-74.757 0,-95.26c-0,-4.419 3.582,-8 8,-8c42.877,-0 245.123,-0 288,-0Z" style="fill:none;stroke:#30363d;stroke-width:1px;stroke-linejoin:round;stroke-miterlimit:1.5;"/>
        <path d="M304,152c4.418,0 8,3.582 8,8c0,33.072 0,158.928 0,192c-0,4.418 -3.582,8 -8,8c-42.877,-0 -245.123,0 -288,-0c-4.418,-0 -8,-3.582 -8,-8c0,-33.072 0,-158.928 0,-192c0,-4.418 3.582,-8 8,-8c42.877,0 245.123,0 288,0Z" style="fill:#0d1116;"/>
        <clipPath id="_clip2">
            <path d="M304,152c4.418,0 8,3.582 8,8c0,33.072 0,158.928 0,192c-0,4.418 -3.582,8 -8,8c-42.877,-0 -245.123,0 -288,-0c-4.418,-0 -8,-3.582 -8,-8c0,-33.072 0,-158.928 0,-192c0,-4.418 3.582,-8 8,-8c42.877,0 245.123,0 288,0Z"/>
        </clipPath>
        <g clip-path="url(#_clip2)">
            <g id="Content2" serif:id="Content" transform="matrix(1,0,0,1,-16,119.26)">
                <g transform="matrix(9,0,0,9,32,70.984)">
                    <path d="M0.189,0.1l0.025,-0.217l0.148,0l-0.025,0.217l0.085,0l0.024,-0.217l0.355,0l0,-0.081l-0.346,-0l0.027,-0.234l0.355,-0l-0,-0.082l-0.346,0l0.024,-0.216l-0.084,-0l-0.024,0.216l-0.148,0l0.024,-0.216l-0.084,-0l-0.025,0.216l-0.103,0l-0,0.082l0.094,-0l-0.026,0.234l-0.104,-0l-0,0.081l0.095,0l-0.025,0.217l0.084,0Zm0.034,-0.298l0.027,-0.234l0.148,-0l-0.027,0.234l-0.148,-0Z" style="fill:#8b949e;fill-rule:nonzero;"/>
                </g>
                <g transform="matrix(9,0,0,9,32,70.984)">
                </g>
                <g transform="matrix(9,0,0,9,255.2,70.984)">
                    <path d="M0.081,-0l0.37,-0l-0,-0.076l-0.138,-0l0,-0.437l-0.012,-0.012l-0.22,0.011l-0,0.075l0.138,0l-0,0.363l-0.138,-0l-0,0.076Zm0.167,-0.641c0.041,-0 0.069,-0.025 0.069,-0.065c0,-0.04 -0.028,-0.064 -0.069,-0.064c-0.041,0 -0.07,0.024 -0.07,0.064c0,0.04 0.029,0.065 0.07,0.065Z" style="fill:#8b949e;fill-rule:nonzero;"/>
                </g>
                <g transform="matrix(9,0,0,9,255.2,70.984)">
                </g>
                <g transform="matrix(9,0,0,9,260.78,70.984)">
                    <path d="M0.313,-0l-0.001,-0.39c0.021,-0.033 0.051,-0.056 0.087,-0.056c0.029,0 0.057,0.014 0.057,0.065l0,0.381l0.089,-0l-0.001,-0.412c0,-0.077 -0.04,-0.113 -0.102,-0.113c-0.06,-0 -0.103,0.035 -0.128,0.085l-0.004,0c-0.009,-0.058 -0.046,-0.085 -0.1,-0.085c-0.06,-0 -0.104,0.035 -0.129,0.085l-0.008,0l-0.007,-0.074l-0.075,0l0,0.514l0.089,-0l0,-0.389c0.021,-0.034 0.05,-0.057 0.087,-0.057c0.029,0 0.057,0.014 0.057,0.065l-0,0.381l0.089,-0Z" style="fill:#8b949e;fill-rule:nonzero;"/>
                </g>
                <g transform="matrix(9,0,0,9,260.78,70.984)">
                </g>
                <text x="43.16px" y="70.984px" style="font-family:'MonaspaceNeon-Regular', 'Monaspace Neon', monospace;font-size:9px;fill:#8b949e;">This message contains an uncompressed <tspan x="266.36px " y="70.984px ">a</tspan>ge</text>
                <g transform="matrix(9,0,0,9,32,84.484)">
                    <path d="M0.189,0.1l0.025,-0.217l0.148,0l-0.025,0.217l0.085,0l0.024,-0.217l0.355,0l0,-0.081l-0.346,-0l0.027,-0.234l0.355,-0l-0,-0.082l-0.346,0l0.024,-0.216l-0.084,-0l-0.024,0.216l-0.148,0l0.024,-0.216l-0.084,-0l-0.025,0.216l-0.103,0l-0,0.082l0.094,-0l-0.026,0.234l-0.104,-0l-0,0.081l0.095,0l-0.025,0.217l0.084,0Zm0.034,-0.298l0.027,-0.234l0.148,-0l-0.027,0.234l-0.148,-0Z" style="fill:#8b949e;fill-rule:nonzero;"/>
                </g>
                <g transform="matrix(9,0,0,9,32,84.484)">
                </g>
                <g transform="matrix(9,0,0,9,221.72,84.484)">
                    <path d="M0.081,-0l0.37,-0l-0,-0.076l-0.138,-0l0,-0.437l-0.012,-0.012l-0.22,0.011l-0,0.075l0.138,0l-0,0.363l-0.138,-0l-0,0.076Zm0.167,-0.641c0.041,-0 0.069,-0.025 0.069,-0.065c0,-0.04 -0.028,-0.064 -0.069,-0.064c-0.041,0 -0.07,0.024 -0.07,0.064c0,0.04 0.029,0.065 0.07,0.065Z" style="fill:#8b949e;fill-rule:nonzero;"/>
                </g>
                <g transform="matrix(9,0,0,9,221.72,84.484)">
                </g>
                <g transform="matrix(9,0,0,9,227.3,84.484)">
                    <path d="M0.313,-0l-0.001,-0.39c0.021,-0.033 0.051,-0.056 0.087,-0.056c0.029,0 0.057,0.014 0.057,0.065l0,0.381l0.089,-0l-0.001,-0.412c0,-0.077 -0.04,-0.113 -0.102,-0.113c-0.06,-0 -0.103,0.035 -0.128,0.085l-0.004,0c-0.009,-0.058 -0.046,-0.085 -0.1,-0.085c-0.06,-0 -0.104,0.035 -0.129,0.085l-0.008,0l-0.007,-0.074l-0.075,0l0,0.514l0.089,-0l0,-0.389c0.021,-0.034 0.05,-0.057 0.087,-0.057c0.029,0 0.057,0.014 0.057,0.065l-0,0.381l0.089,-0Z" style="fill:#8b949e;fill-rule:nonzero;"/>
                </g>
                <g transform="matrix(9,0,0,9,227.3,84.484)">
                </g>
                <text x="43.16px" y="84.484px" style="font-family:'MonaspaceNeon-Regular', 'Monaspace Neon', monospace;font-size:9px;fill:#8b949e;">(0, 0) is at top-left corner of <tspan x="232.88px " y="84.484px ">a</tspan>ge</text>
                <text x="32px" y="97.984px" style="font-family:'MonaspaceNeon-Regular', 'Monaspace Neon', monospace;font-size:9px;fill:#e6edf3;">...</text>
                <text x="32px" y="124.984px" style="font-family:'MonaspaceNeon-Regular', 'Monaspace Neon', monospace;font-size:9px;fill:#ff7b72;">string</text>
                <text x="71.06px" y="124.984px" style="font-family:'MonaspaceNeon-Regular', 'Monaspace Neon', monospace;font-size:9px;fill:#79c0ff;">encoding</text>
                <g transform="matrix(9,0,0,9,154.76,124.984)">
                    <path d="M0.189,0.1l0.025,-0.217l0.148,0l-0.025,0.217l0.085,0l0.024,-0.217l0.355,0l0,-0.081l-0.346,-0l0.027,-0.234l0.355,-0l-0,-0.082l-0.346,0l0.024,-0.216l-0.084,-0l-0.024,0.216l-0.148,0l0.024,-0.216l-0.084,-0l-0.025,0.216l-0.103,0l-0,0.082l0.094,-0l-0.026,0.234l-0.104,-0l-0,0.081l0.095,0l-0.025,0.217l0.084,0Zm0.034,-0.298l0.027,-0.234l0.148,-0l-0.027,0.234l-0.148,-0Z" style="fill:#8b949e;fill-rule:nonzero;"/>
                </g>
                <g transform="matrix(9,0,0,9,154.76,124.984)">
                </g>
                <text x="165.92px" y="124.984px" style="font-family:'MonaspaceNeon-Regular', 'Monaspace Neon', monospace;font-size:9px;fill:#8b949e;">Encoding of pixels --</text>
                <text x="32px" y="138.484px" style="font-family:'MonaspaceNeon-Regular', 'Monaspace Neon', monospace;font-size:9px;fill:#8b949e;">channel meaning, ordering, size</text>
                <g transform="matrix(9,0,0,9,154.76,151.984)">
                    <path d="M0.189,0.1l0.025,-0.217l0.148,0l-0.025,0.217l0.085,0l0.024,-0.217l0.355,0l0,-0.081l-0.346,-0l0.027,-0.234l0.355,-0l-0,-0.082l-0.346,0l0.024,-0.216l-0.084,-0l-0.024,0.216l-0.148,0l0.024,-0.216l-0.084,-0l-0.025,0.216l-0.103,0l-0,0.082l0.094,-0l-0.026,0.234l-0.104,-0l-0,0.081l0.095,0l-0.025,0.217l0.084,0Zm0.034,-0.298l0.027,-0.234l0.148,-0l-0.027,0.234l-0.148,-0Z" style="fill:#8b949e;fill-rule:nonzero;"/>
                </g>
                <g transform="matrix(9,0,0,9,154.76,151.984)">
                </g>
                <text x="165.92px" y="151.984px" style="font-family:'MonaspaceNeon-Regular', 'Monaspace Neon', monospace;font-size:9px;fill:#8b949e;">taken from the list of</text>
                <g transform="matrix(9,0,0,9,171.5,165.484)">
                    <rect x="0.045" y="0.115" width="0.404" height="0.065" style="fill:#8b949e;fill-rule:nonzero;"/>
                </g>
                <g transform="matrix(9,0,0,9,171.5,165.484)">
                </g>
                <g transform="matrix(9,0,0,9,177.08,165.484)">
                    <path d="M0.313,-0l-0.001,-0.39c0.021,-0.033 0.051,-0.056 0.087,-0.056c0.029,0 0.057,0.014 0.057,0.065l0,0.381l0.089,-0l-0.001,-0.412c0,-0.077 -0.04,-0.113 -0.102,-0.113c-0.06,-0 -0.103,0.035 -0.128,0.085l-0.004,0c-0.009,-0.058 -0.046,-0.085 -0.1,-0.085c-0.06,-0 -0.104,0.035 -0.129,0.085l-0.008,0l-0.007,-0.074l-0.075,0l0,0.514l0.089,-0l0,-0.389c0.021,-0.034 0.05,-0.057 0.087,-0.057c0.029,0 0.057,0.014 0.057,0.065l-0,0.381l0.089,-0Z" style="fill:#8b949e;fill-rule:nonzero;"/>
                </g>
                <g transform="matrix(9,0,0,9,177.08,165.484)">
                </g>
                <g transform="matrix(9,0,0,9,204.98,165.484)">
                    <path d="M0.081,-0l0.37,-0l-0,-0.076l-0.138,-0l0,-0.437l-0.012,-0.012l-0.22,0.011l-0,0.075l0.138,0l-0,0.363l-0.138,-0l-0,0.076Zm0.167,-0.641c0.041,-0 0.069,-0.025 0.069,-0.065c0,-0.04 -0.028,-0.064 -0.069,-0.064c-0.041,0 -0.07,0.024 -0.07,0.064c0,0.04 0.029,0.065 0.07,0.065Z" style="fill:#8b949e;fill-rule:nonzero;"/>
                </g>
                <g transform="matrix(9,0,0,9,204.98,165.484)">
                </g>
                <g transform="matrix(9,0,0,9,210.56,165.484)">
                    <path d="M0.313,-0l-0.001,-0.39c0.021,-0.033 0.051,-0.056 0.087,-0.056c0.029,0 0.057,0.014 0.057,0.065l0,0.381l0.089,-0l-0.001,-0.412c0,-0.077 -0.04,-0.113 -0.102,-0.113c-0.06,-0 -0.103,0.035 -0.128,0.085l-0.004,0c-0.009,-0.058 -0.046,-0.085 -0.1,-0.085c-0.06,-0 -0.104,0.035 -0.129,0.085l-0.008,0l-0.007,-0.074l-0.075,0l0,0.514l0.089,-0l0,-0.389c0.021,-0.034 0.05,-0.057 0.087,-0.057c0.029,0 0.057,0.014 0.057,0.065l-0,0.381l0.089,-0Z" style="fill:#8b949e;fill-rule:nonzero;"/>
                </g>
                <g transform="matrix(9,0,0,9,210.56,165.484)">
                </g>
                <text x="32px" y="165.484px" style="font-family:'MonaspaceNeon-Regular', 'Monaspace Neon', monospace;font-size:9px;fill:#8b949e;">strings in include/sensor<tspan x="182.66px " y="165.484px ">s</tspan>gs/<tspan x="216.14px " y="165.484px ">a</tspan>ge_encodings.hpp</text>
                <text x="32px" y="192.484px" style="font-family:'MonaspaceNeon-Regular', 'Monaspace Neon', monospace;font-size:9px;fill:#ff7b72;">uint8</text>
                <text x="65.48px" y="192.484px" style="font-family:'MonaspaceNeon-Regular', 'Monaspace Neon', monospace;font-size:9px;fill:#79c0ff;">is_bigendian</text>
                <g transform="matrix(9,0,0,9,154.76,192.484)">
                    <path d="M0.189,0.1l0.025,-0.217l0.148,0l-0.025,0.217l0.085,0l0.024,-0.217l0.355,0l0,-0.081l-0.346,-0l0.027,-0.234l0.355,-0l-0,-0.082l-0.346,0l0.024,-0.216l-0.084,-0l-0.024,0.216l-0.148,0l0.024,-0.216l-0.084,-0l-0.025,0.216l-0.103,0l-0,0.082l0.094,-0l-0.026,0.234l-0.104,-0l-0,0.081l0.095,0l-0.025,0.217l0.084,0Zm0.034,-0.298l0.027,-0.234l0.148,-0l-0.027,0.234l-0.148,-0Z" style="fill:#8b949e;fill-rule:nonzero;"/>
                </g>
                <g transform="matrix(9,0,0,9,154.76,192.484)">
                </g>
                <text x="165.92px" y="192.484px" style="font-family:'MonaspaceNeon-Regular', 'Monaspace Neon', monospace;font-size:9px;fill:#8b949e;">is this data bigendian?</text>
                <text x="32px" y="205.984px" style="font-family:'MonaspaceNeon-Regular', 'Monaspace Neon', monospace;font-size:9px;fill:#ff7b72;">uint32</text>
                <text x="71.06px" y="205.984px" style="font-family:'MonaspaceNeon-Regular', 'Monaspace Neon', monospace;font-size:9px;fill:#79c0ff;">step</text>
                <g transform="matrix(9,0,0,9,154.76,205.984)">
                    <path d="M0.189,0.1l0.025,-0.217l0.148,0l-0.025,0.217l0.085,0l0.024,-0.217l0.355,0l0,-0.081l-0.346,-0l0.027,-0.234l0.355,-0l-0,-0.082l-0.346,0l0.024,-0.216l-0.084,-0l-0.024,0.216l-0.148,0l0.024,-0.216l-0.084,-0l-0.025,0.216l-0.103,0l-0,0.082l0.094,-0l-0.026,0.234l-0.104,-0l-0,0.081l0.095,0l-0.025,0.217l0.084,0Zm0.034,-0.298l0.027,-0.234l0.148,-0l-0.027,0.234l-0.148,-0Z" style="fill:#8b949e;fill-rule:nonzero;"/>
                </g>
                <g transform="matrix(9,0,0,9,154.76,205.984)">
                </g>
                <text x="165.92px" y="205.984px" style="font-family:'MonaspaceNeon-Regular', 'Monaspace Neon', monospace;font-size:9px;fill:#8b949e;">Full row length in bytes</text>
                <text x="32px" y="219.484px" style="font-family:'MonaspaceNeon-Regular', 'Monaspace Neon', monospace;font-size:9px;fill:#ff7b72;">uint8</text>
                <text x="59.9px" y="219.484px" style="font-family:'MonaspaceNeon-Regular', 'Monaspace Neon', monospace;font-size:9px;fill:#e6edf3;">[]</text>
                <text x="76.64px" y="219.484px" style="font-family:'MonaspaceNeon-Regular', 'Monaspace Neon', monospace;font-size:9px;fill:#79c0ff;">data</text>
                <g transform="matrix(9,0,0,9,154.76,219.484)">
                    <path d="M0.189,0.1l0.025,-0.217l0.148,0l-0.025,0.217l0.085,0l0.024,-0.217l0.355,0l0,-0.081l-0.346,-0l0.027,-0.234l0.355,-0l-0,-0.082l-0.346,0l0.024,-0.216l-0.084,-0l-0.024,0.216l-0.148,0l0.024,-0.216l-0.084,-0l-0.025,0.216l-0.103,0l-0,0.082l0.094,-0l-0.026,0.234l-0.104,-0l-0,0.081l0.095,0l-0.025,0.217l0.084,0Zm0.034,-0.298l0.027,-0.234l0.148,-0l-0.027,0.234l-0.148,-0Z" style="fill:#8b949e;fill-rule:nonzero;"/>
                </g>
                <g transform="matrix(9,0,0,9,154.76,219.484)">
                </g>
                <text x="165.92px" y="219.484px" style="font-family:'MonaspaceNeon-Regular', 'Monaspace Neon', monospace;font-size:9px;fill:#8b949e;">actual matrix data, size is</text>
                <text x="32px" y="232.984px" style="font-family:'MonaspaceNeon-Regular', 'Monaspace Neon', monospace;font-size:9px;fill:#8b949e;">(step * rows)</text>
            </g>
            <g id="Content3" serif:id="Content" transform="matrix(9,0,0,9,104.54,167.26)">
                <path d="M0.081,-0l0.37,-0l-0,-0.076l-0.138,-0l0,-0.437l-0.012,-0.012l-0.22,0.011l-0,0.075l0.138,0l-0,0.363l-0.138,-0l-0,0.076Zm0.167,-0.641c0.041,-0 0.069,-0.025 0.069,-0.065c0,-0.04 -0.028,-0.064 -0.069,-0.064c-0.041,0 -0.07,0.024 -0.07,0.064c0,0.04 0.029,0.065 0.07,0.065Z" style="fill:#8b949e;fill-rule:nonzero;"/>
            </g>
            <g transform="matrix(9,0,0,9,104.54,167.26)">
            </g>
            <g transform="matrix(9,0,0,9,110.12,167.26)">
                <path d="M0.313,-0l-0.001,-0.39c0.021,-0.033 0.051,-0.056 0.087,-0.056c0.029,0 0.057,0.014 0.057,0.065l0,0.381l0.089,-0l-0.001,-0.412c0,-0.077 -0.04,-0.113 -0.102,-0.113c-0.06,-0 -0.103,0.035 -0.128,0.085l-0.004,0c-0.009,-0.058 -0.046,-0.085 -0.1,-0.085c-0.06,-0 -0.104,0.035 -0.129,0.085l-0.008,0l-0.007,-0.074l-0.075,0l0,0.514l0.089,-0l0,-0.389c0.021,-0.034 0.05,-0.057 0.087,-0.057c0.029,0 0.057,0.014 0.057,0.065l-0,0.381l0.089,-0Z" style="fill:#8b949e;fill-rule:nonzero;"/>
            </g>
            <g transform="matrix(9,0,0,9,110.12,167.26)">
            </g>
            <g transform="matrix(9,0,0,9,138.02,167.26)">
                <path d="M0.083,-0l0.382,-0l-0,-0.082l-0.143,-0l0,-0.566l0.143,-0l-0,-0.082l-0.382,-0l-0,0.082l0.142,-0l0,0.566l-0.142,-0l-0,0.082Z" style="fill:#8b949e;fill-rule:nonzero;"/>
            </g>
            <g transform="matrix(9,0,0,9,138.02,167.26)">
            </g>
            <g transform="matrix(9,0,0,9,143.6,167.26)">
                <path d="M0.313,-0l-0.001,-0.39c0.021,-0.033 0.051,-0.056 0.087,-0.056c0.029,0 0.057,0.014 0.057,0.065l0,0.381l0.089,-0l-0.001,-0.412c0,-0.077 -0.04,-0.113 -0.102,-0.113c-0.06,-0 -0.103,0.035 -0.128,0.085l-0.004,0c-0.009,-0.058 -0.046,-0.085 -0.1,-0.085c-0.06,-0 -0.104,0.035 -0.129,0.085l-0.008,0l-0.007,-0.074l-0.075,0l0,0.514l0.089,-0l0,-0.389c0.021,-0.034 0.05,-0.057 0.087,-0.057c0.029,0 0.057,0.014 0.057,0.065l-0,0.381l0.089,-0Z" style="fill:#8b949e;fill-rule:nonzero;"/>
            </g>
            <g transform="matrix(9,0,0,9,143.6,167.26)">
            </g>
            <g transform="matrix(9,0,0,9,165.92,167.26)">
                <path d="M0.31,0.018c0.052,-0 0.093,-0.035 0.093,-0.091c-0,-0.057 -0.041,-0.09 -0.093,-0.09c-0.051,0 -0.092,0.033 -0.092,0.09c-0,0.056 0.041,0.091 0.092,0.091Z" style="fill:#8b949e;fill-rule:nonzero;"/>
            </g>
            <g transform="matrix(9,0,0,9,165.92,167.26)">
            </g>
            <g transform="matrix(9,0,0,9,171.5,167.26)">
                <path d="M0.313,-0l-0.001,-0.39c0.021,-0.033 0.051,-0.056 0.087,-0.056c0.029,0 0.057,0.014 0.057,0.065l0,0.381l0.089,-0l-0.001,-0.412c0,-0.077 -0.04,-0.113 -0.102,-0.113c-0.06,-0 -0.103,0.035 -0.128,0.085l-0.004,0c-0.009,-0.058 -0.046,-0.085 -0.1,-0.085c-0.06,-0 -0.104,0.035 -0.129,0.085l-0.008,0l-0.007,-0.074l-0.075,0l0,0.514l0.089,-0l0,-0.389c0.021,-0.034 0.05,-0.057 0.087,-0.057c0.029,0 0.057,0.014 0.057,0.065l-0,0.381l0.089,-0Z" style="fill:#8b949e;fill-rule:nonzero;"/>
            </g>
            <g transform="matrix(9,0,0,9,171.5,167.26)">
            </g>
            <g transform="matrix(9,0,0,9,193.82,167.26)">
                <path d="M0.277,-0.301c-0,-0.245 0.083,-0.38 0.192,-0.5l-0.078,-0c-0.105,0.104 -0.209,0.249 -0.209,0.5c-0,0.252 0.104,0.397 0.209,0.501l0.078,0c-0.109,-0.12 -0.192,-0.255 -0.192,-0.501Z" style="fill:#8b949e;fill-rule:nonzero;"/>
            </g>
            <g transform="matrix(9,0,0,9,193.82,167.26)">
            </g>
            <g transform="matrix(9,0,0,9,199.4,167.26)">
                <path d="M0.307,-0l0,-0.648l0.254,-0l-0,-0.082l-0.605,-0l0,0.082l0.255,-0l-0,0.648l0.096,-0Z" style="fill:#8b949e;fill-rule:nonzero;"/>
            </g>
            <g transform="matrix(9,0,0,9,199.4,167.26)">
            </g>
            <g transform="matrix(9,0,0,9,232.88,167.26)">
            </g>
            <text x="32px" y="167.26px" style="font-family:'MonaspaceNeon-Regular', 'Monaspace Neon', monospace;font-size:9px;fill:#8b949e;">/rgbd_camera/<tspan x="115.7px " y="167.26px ">a</tspan>ge <tspan x="149.18px " y="167.26px ">a</tspan>ge<tspan x="177.08px " y="167.26px ">s</tspan>g <tspan x="204.98px " y="167.26px ">o</tspan>pic)</text>
            <g>
                <path id="path398801" serif:id="path39880" d="M17.756,160.168c0,0.501 -0.393,0.907 -0.878,0.907c-0.485,0 -0.878,-0.406 -0.878,-0.907c0,-0.501 0.393,-0.908 0.878,-0.908c0.485,0 0.878,0.407 0.878,0.908Z" style="fill:#8b949e;fill-rule:nonzero;"/>
                <path id="path398821" serif:id="path39882" d="M17.756,163.26c0,0.502 -0.393,0.908 -0.878,0.908c-0.485,-0 -0.878,-0.406 -0.878,-0.908c0,-0.501 0.393,-0.907 0.878,-0.907c0.485,-0 0.878,0.406 0.878,0.907Z" style="fill:#8b949e;fill-rule:nonzero;"/>
                <path id="path398841" serif:id="path39884" d="M17.756,166.353c0,0.501 -0.393,0.907 -0.878,0.907c-0.485,0 -0.878,-0.406 -0.878,-0.907c0,-0.501 0.393,-0.908 0.878,-0.908c0.485,0 0.878,0.407 0.878,0.908Z" style="fill:#8b949e;fill-rule:nonzero;"/>
                <path id="path398861" serif:id="path39886" d="M20.821,163.26c-0,0.502 -0.394,0.908 -0.879,0.908c-0.485,-0 -0.878,-0.406 -0.878,-0.908c0,-0.501 0.393,-0.907 0.878,-0.907c0.485,-0 0.879,0.406 0.879,0.907Z" style="fill:#8b949e;fill-rule:nonzero;"/>
                <path id="path398881" serif:id="path39888" d="M20.821,160.168c-0,0.501 -0.394,0.907 -0.879,0.907c-0.485,0 -0.878,-0.406 -0.878,-0.907c0,-0.501 0.393,-0.908 0.878,-0.908c0.485,0 0.879,0.407 0.879,0.908Z" style="fill:#8b949e;fill-rule:nonzero;"/>
                <path id="path398901" serif:id="path39890" d="M23.885,163.26c-0,0.502 -0.393,0.908 -0.878,0.908c-0.485,-0 -0.878,-0.406 -0.878,-0.908c-0,-0.501 0.393,-0.907 0.878,-0.907c0.485,-0 0.878,0.406 0.878,0.907Z" style="fill:#8b949e;fill-rule:nonzero;"/>
                <path id="path398921" serif:id="path39892" d="M23.885,160.168c-0,0.501 -0.393,0.907 -0.878,0.907c-0.485,0 -0.878,-0.406 -0.878,-0.907c-0,-0.501 0.393,-0.908 0.878,-0.908c0.485,0 0.878,0.407 0.878,0.908Z" style="fill:#8b949e;fill-rule:nonzero;"/>
                <path id="path398941" serif:id="path39894" d="M23.885,166.353c-0,0.501 -0.393,0.907 -0.878,0.907c-0.485,0 -0.878,-0.406 -0.878,-0.907c-0,-0.501 0.393,-0.908 0.878,-0.908c0.485,0 0.878,0.407 0.878,0.908Z" style="fill:#8b949e;fill-rule:nonzero;"/>
                <path id="path398961" serif:id="path39896" d="M20.821,166.353c-0,0.501 -0.394,0.907 -0.879,0.907c-0.485,0 -0.878,-0.406 -0.878,-0.907c0,-0.501 0.393,-0.908 0.878,-0.908c0.485,0 0.879,0.407 0.879,0.908Z" style="fill:#8b949e;fill-rule:nonzero;"/>
            </g>
            <path id="Divider1" serif:id="Divider" d="M8,175.26l304,0" style="fill:none;stroke:#30363d;stroke-width:1px;stroke-linejoin:round;stroke-miterlimit:1.5;"/>
        </g>
        <path d="M304,152c4.418,0 8,3.582 8,8c0,33.072 0,158.928 0,192c-0,4.418 -3.582,8 -8,8c-42.877,-0 -245.123,0 -288,-0c-4.418,-0 -8,-3.582 -8,-8c0,-33.072 0,-158.928 0,-192c0,-4.418 3.582,-8 8,-8c42.877,0 245.123,0 288,0Z" style="fill:none;stroke:#30363d;stroke-width:1px;stroke-linejoin:round;stroke-miterlimit:1.5;"/>
        <path d="M640,8.74c4.418,-0 8,3.581 8,8c0,30.196 0,137.064 0,167.26c-0,4.418 -3.582,8 -8,8c-42.877,0 -245.123,0 -288,0c-4.418,-0 -8,-3.582 -8,-8c-0,-30.196 -0,-137.064 -0,-167.26c0,-4.419 3.582,-8 8,-8c42.877,-0 245.123,-0 288,-0Z" style="fill:#0d1116;"/>
        <clipPath id="_clip3">
            <path d="M640,8.74c4.418,-0 8,3.581 8,8c0,30.196 0,137.064 0,167.26c-0,4.418 -3.582,8 -8,8c-42.877,0 -245.123,0 -288,0c-4.418,-0 -8,-3.582 -8,-8c-0,-30.196 -0,-137.064 -0,-167.26c0,-4.419 3.582,-8 8,-8c42.877,-0 245.123,-0 288,-0Z"/>
        </clipPath>
        <g clip-path="url(#_clip3)">
            <g id="Content4" serif:id="Content" transform="matrix(1,0,0,1,320,-24)">
                <text x="32px" y="70.984px" style="font-family:'MonaspaceNeon-Regular', 'Monaspace Neon', monospace;font-size:9px;fill:#7ee787;">name</text>
                <text x="54.32px" y="70.984px" style="font-family:'MonaspaceNeon-Regular', 'Monaspace Neon', monospace;font-size:9px;fill:#e6edf3;">:</text>
                <g transform="matrix(9,0,0,9,104.54,70.984)">
                    <rect x="0.045" y="0.115" width="0.404" height="0.065" style="fill:#a5d6ff;fill-rule:nonzero;"/>
                </g>
                <g transform="matrix(9,0,0,9,104.54,70.984)">
                </g>
                <g transform="matrix(9,0,0,9,110.12,70.984)">
                    <path d="M-0.044,-0.514l0.136,0.514l0.078,-0l0.109,-0.313l0.006,-0l0.104,0.313l0.083,-0l0.135,-0.514l-0.088,0l-0.094,0.372l-0.009,-0l-0.098,-0.296l-0.062,0l-0.104,0.296l-0.008,-0l-0.095,-0.372l-0.093,0Z" style="fill:#a5d6ff;fill-rule:nonzero;"/>
                </g>
                <g transform="matrix(9,0,0,9,110.12,70.984)">
                </g>
                <text x="65.48px" y="70.984px" style="font-family:'MonaspaceNeon-Regular', 'Monaspace Neon', monospace;font-size:9px;fill:#a5d6ff;">&quot;create<tspan x="115.7px " y="70.984px ">a</tspan>ypoint&quot;</text>
                <text x="32px" y="84.484px" style="font-family:'MonaspaceNeon-Regular', 'Monaspace Neon', monospace;font-size:9px;fill:#7ee787;">description</text>
                <text x="93.38px" y="84.484px" style="font-family:'MonaspaceNeon-Regular', 'Monaspace Neon', monospace;font-size:9px;fill:#e6edf3;">:</text>
                <text x="104.54px" y="84.484px" style="font-family:'MonaspaceNeon-Regular', 'Monaspace Neon', monospace;font-size:9px;fill:#a5d6ff;">&quot;Create a new waypoint at the current</text>
                <text x="32px" y="97.984px" style="font-family:'MonaspaceNeon-Regular', 'Monaspace Neon', monospace;font-size:9px;fill:#a5d6ff;">robot position&quot;</text>
                <text x="32px" y="111.484px" style="font-family:'MonaspaceNeon-Regular', 'Monaspace Neon', monospace;font-size:9px;fill:#7ee787;">inputSchema</text>
                <text x="93.38px" y="111.484px" style="font-family:'MonaspaceNeon-Regular', 'Monaspace Neon', monospace;font-size:9px;fill:#e6edf3;">:</text>
                <text x="54.32px" y="124.984px" style="font-family:'MonaspaceNeon-Regular', 'Monaspace Neon', monospace;font-size:9px;fill:#7ee787;">type</text>
                <text x="76.64px" y="124.984px" style="font-family:'MonaspaceNeon-Regular', 'Monaspace Neon', monospace;font-size:9px;fill:#e6edf3;">:</text>
                <text x="87.8px" y="124.984px" style="font-family:'MonaspaceNeon-Regular', 'Monaspace Neon', monospace;font-size:9px;fill:#a5d6ff;">&quot;object&quot;</text>
                <text x="54.32px" y="138.484px" style="font-family:'MonaspaceNeon-Regular', 'Monaspace Neon', monospace;font-size:9px;fill:#7ee787;">properties</text>
                <text x="110.12px" y="138.484px" style="font-family:'MonaspaceNeon-Regular', 'Monaspace Neon', monospace;font-size:9px;fill:#e6edf3;">:</text>
                <text x="76.64px" y="151.984px" style="font-family:'MonaspaceNeon-Regular', 'Monaspace Neon', monospace;font-size:9px;fill:#7ee787;">name</text>
                <text x="98.96px" y="151.984px" style="font-family:'MonaspaceNeon-Regular', 'Monaspace Neon', monospace;font-size:9px;fill:#e6edf3;">:</text>
                <text x="98.96px" y="165.484px" style="font-family:'MonaspaceNeon-Regular', 'Monaspace Neon', monospace;font-size:9px;fill:#7ee787;">type</text>
                <text x="121.28px" y="165.484px" style="font-family:'MonaspaceNeon-Regular', 'Monaspace Neon', monospace;font-size:9px;fill:#e6edf3;">:</text>
                <text x="132.44px" y="165.484px" style="font-family:'MonaspaceNeon-Regular', 'Monaspace Neon', monospace;font-size:9px;fill:#a5d6ff;">&quot;string&quot;</text>
                <text x="98.96px" y="178.984px" style="font-family:'MonaspaceNeon-Regular', 'Monaspace Neon', monospace;font-size:9px;fill:#7ee787;">description</text>
                <text x="160.34px" y="178.984px" style="font-family:'MonaspaceNeon-Regular', 'Monaspace Neon', monospace;font-size:9px;fill:#e6edf3;">:</text>
                <text x="171.5px" y="178.984px" style="font-family:'MonaspaceNeon-Regular', 'Monaspace Neon', monospace;font-size:9px;fill:#a5d6ff;">&quot;name of the waypoint&quot;</text>
                <text x="76.64px" y="192.484px" style="font-family:'MonaspaceNeon-Regular', 'Monaspace Neon', monospace;font-size:9px;fill:#7ee787;">details</text>
                <text x="115.7px" y="192.484px" style="font-family:'MonaspaceNeon-Regular', 'Monaspace Neon', monospace;font-size:9px;fill:#e6edf3;">:</text>
                <text x="98.96px" y="205.984px" style="font-family:'MonaspaceNeon-Regular', 'Monaspace Neon', monospace;font-size:9px;fill:#7ee787;">type</text>
                <text x="121.28px" y="205.984px" style="font-family:'MonaspaceNeon-Regular', 'Monaspace Neon', monospace;font-size:9px;fill:#e6edf3;">:</text>
                <text x="132.44px" y="205.984px" style="font-family:'MonaspaceNeon-Regular', 'Monaspace Neon', monospace;font-size:9px;fill:#a5d6ff;">&quot;string&quot;</text>
            </g>
            <g id="Content5" serif:id="Content" transform="matrix(9,0,0,9,401.48,24)">
                <rect x="0.045" y="0.115" width="0.404" height="0.065" style="fill:#8b949e;fill-rule:nonzero;"/>
            </g>
            <g transform="matrix(9,0,0,9,401.48,24)">
            </g>
            <g transform="matrix(9,0,0,9,407.06,24)">
                <path d="M-0.044,-0.514l0.136,0.514l0.078,-0l0.109,-0.313l0.006,-0l0.104,0.313l0.083,-0l0.135,-0.514l-0.088,0l-0.094,0.372l-0.009,-0l-0.098,-0.296l-0.062,0l-0.104,0.296l-0.008,-0l-0.095,-0.372l-0.093,0Z" style="fill:#8b949e;fill-rule:nonzero;"/>
            </g>
            <g transform="matrix(9,0,0,9,407.06,24)">
            </g>
            <g transform="matrix(9,0,0,9,457.28,24)">
                <path d="M0.277,-0.301c-0,-0.245 0.083,-0.38 0.192,-0.5l-0.078,-0c-0.105,0.104 -0.209,0.249 -0.209,0.5c-0,0.252 0.104,0.397 0.209,0.501l0.078,0c-0.109,-0.12 -0.192,-0.255 -0.192,-0.501Z" style="fill:#8b949e;fill-rule:nonzero;"/>
            </g>
            <g transform="matrix(9,0,0,9,457.28,24)">
            </g>
            <g transform="matrix(9,0,0,9,462.86,24)">
                <path d="M0.013,-0.73l0,0.73l0.08,-0l0,-0.587l0.006,0l0.162,0.385l0.038,-0l0.161,-0.385l0.007,0l0,0.587l0.082,-0l0,-0.73l-0.1,-0l-0.163,0.379l-0.006,-0l-0.162,-0.379l-0.105,-0Z" style="fill:#8b949e;fill-rule:nonzero;"/>
            </g>
            <g transform="matrix(9,0,0,9,462.86,24)">
            </g>
            <g transform="matrix(9,0,0,9,513.08,24)">
            </g>
            <text x="368px" y="24px" style="font-family:'MonaspaceNeon-Regular', 'Monaspace Neon', monospace;font-size:9px;fill:#8b949e;">create<tspan x="412.64px " y="24px ">a</tspan>ypoint <tspan x="468.44px " y="24px ">C</tspan>P Tool)</text>
            <g>
                <path d="M357.983,16.381c-0.406,-0.396 -1.063,-0.396 -1.47,-0l-3.921,3.845c-0.136,0.132 -0.355,0.132 -0.49,0c-0.065,-0.063 -0.102,-0.15 -0.102,-0.24c0,-0.091 0.037,-0.178 0.102,-0.241l3.921,-3.845c0.678,-0.66 1.773,-0.66 2.45,-0c0.385,0.374 0.568,0.911 0.491,1.442c0.538,-0.077 1.081,0.101 1.47,0.481l0.02,0.02c0.325,0.315 0.508,0.749 0.508,1.202c-0,0.452 -0.183,0.886 -0.508,1.201l-3.546,3.478c-0.022,0.021 -0.034,0.05 -0.034,0.08c0,0.03 0.012,0.059 0.034,0.08l0.728,0.715c0.065,0.063 0.102,0.149 0.102,0.24c-0,0.09 -0.037,0.177 -0.102,0.24c-0.135,0.132 -0.354,0.132 -0.49,0l-0.728,-0.714c-0.152,-0.147 -0.237,-0.35 -0.237,-0.561c-0,-0.211 0.085,-0.413 0.237,-0.561l3.546,-3.478c0.195,-0.189 0.305,-0.449 0.305,-0.721c-0,-0.271 -0.11,-0.531 -0.305,-0.721l-0.02,-0.02c-0.406,-0.395 -1.062,-0.396 -1.469,-0.001l-2.922,2.865l-0.041,0.041c-0.135,0.132 -0.355,0.132 -0.49,-0c-0.065,-0.063 -0.102,-0.15 -0.102,-0.241c0,-0.09 0.037,-0.177 0.102,-0.24l2.963,-2.906c0.193,-0.189 0.303,-0.449 0.303,-0.719c-0,-0.272 -0.11,-0.532 -0.305,-0.721Z" style="fill:#8b949e;"/>
                <path d="M357.493,17.342c0.065,-0.063 0.102,-0.15 0.102,-0.24c-0,-0.091 -0.037,-0.178 -0.102,-0.241c-0.135,-0.132 -0.355,-0.132 -0.49,0l-2.9,2.844c-0.325,0.316 -0.508,0.75 -0.508,1.202c0,0.453 0.183,0.886 0.508,1.202c0.678,0.659 1.773,0.659 2.451,-0l2.9,-2.844c0.065,-0.063 0.101,-0.15 0.101,-0.241c0,-0.09 -0.036,-0.177 -0.101,-0.24c-0.136,-0.132 -0.355,-0.132 -0.491,-0l-2.9,2.844c-0.406,0.396 -1.063,0.396 -1.47,0c-0.195,-0.189 -0.304,-0.449 -0.304,-0.721c-0,-0.271 0.109,-0.532 0.304,-0.721l2.9,-2.844Z" style="fill:#8b949e;"/>
            </g>
            <path id="Divider2" serif:id="Divider" d="M344,32l304,0" style="fill:none;stroke:#30363d;stroke-width:1px;stroke-linejoin:round;stroke-miterlimit:1.5;"/>
        </g>
        <path d="M640,8.74c4.418,-0 8,3.581 8,8c0,30.196 0,137.064 0,167.26c-0,4.418 -3.582,8 -8,8c-42.877,0 -245.123,0 -288,0c-4.418,-0 -8,-3.582 -8,-8c-0,-30.196 -0,-137.064 -0,-167.26c0,-4.419 3.582,-8 8,-8c42.877,-0 245.123,-0 288,-0Z" style="fill:none;stroke:#30363d;stroke-width:1px;stroke-linejoin:round;stroke-miterlimit:1.5;"/>
        <path d="M640,224.74c4.418,-0 8,3.581 8,8c-0,24.007 -0,95.253 -0,119.26c0,4.418 -3.582,8 -8,8c-42.877,-0 -245.123,-0 -288,-0c-4.418,-0 -8,-3.582 -8,-8c-0,-24.007 -0,-95.253 -0,-119.26c-0,-4.419 3.582,-8 8,-8c42.877,-0 245.123,-0 288,-0Z" style="fill:#0d1116;"/>
        <clipPath id="_clip4">
            <path d="M640,224.74c4.418,-0 8,3.581 8,8c-0,24.007 -0,95.253 -0,119.26c0,4.418 -3.582,8 -8,8c-42.877,-0 -245.123,-0 -288,-0c-4.418,-0 -8,-3.582 -8,-8c-0,-24.007 -0,-95.253 -0,-119.26c-0,-4.419 3.582,-8 8,-8c42.877,-0 245.123,-0 288,-0Z"/>
        </clipPath>
        <g clip-path="url(#_clip4)">
            <g id="Content6" serif:id="Content" transform="matrix(1,0,0,1,320,192)">
                <text x="32px" y="70.984px" style="font-family:'MonaspaceNeon-Regular', 'Monaspace Neon', monospace;font-size:9px;fill:#7ee787;">uri</text>
                <text x="48.74px" y="70.984px" style="font-family:'MonaspaceNeon-Regular', 'Monaspace Neon', monospace;font-size:9px;fill:#e6edf3;">:</text>
                <g transform="matrix(9,0,0,9,177.08,70.984)">
                    <path d="M0.081,-0l0.37,-0l-0,-0.076l-0.138,-0l0,-0.437l-0.012,-0.012l-0.22,0.011l-0,0.075l0.138,0l-0,0.363l-0.138,-0l-0,0.076Zm0.167,-0.641c0.041,-0 0.069,-0.025 0.069,-0.065c0,-0.04 -0.028,-0.064 -0.069,-0.064c-0.041,0 -0.07,0.024 -0.07,0.064c0,0.04 0.029,0.065 0.07,0.065Z" style="fill:#a5d6ff;fill-rule:nonzero;"/>
                </g>
                <g transform="matrix(9,0,0,9,177.08,70.984)">
                </g>
                <g transform="matrix(9,0,0,9,182.66,70.984)">
                    <path d="M0.313,-0l-0.001,-0.39c0.021,-0.033 0.051,-0.056 0.087,-0.056c0.029,0 0.057,0.014 0.057,0.065l0,0.381l0.089,-0l-0.001,-0.412c0,-0.077 -0.04,-0.113 -0.102,-0.113c-0.06,-0 -0.103,0.035 -0.128,0.085l-0.004,0c-0.009,-0.058 -0.046,-0.085 -0.1,-0.085c-0.06,-0 -0.104,0.035 -0.129,0.085l-0.008,0l-0.007,-0.074l-0.075,0l0,0.514l0.089,-0l0,-0.389c0.021,-0.034 0.05,-0.057 0.087,-0.057c0.029,0 0.057,0.014 0.057,0.065l-0,0.381l0.089,-0Z" style="fill:#a5d6ff;fill-rule:nonzero;"/>
                </g>
                <g transform="matrix(9,0,0,9,182.66,70.984)">
                </g>
                <text x="59.9px" y="70.984px" style="font-family:'MonaspaceNeon-Regular', 'Monaspace Neon', monospace;font-size:9px;fill:#a5d6ff;">&quot;ros2:///rgbd_camera/<tspan x="188.24px " y="70.984px ">a</tspan>ge&quot;</text>
                <g transform="matrix(9,0,0,9,37.58,84.484)">
                    <path d="M0.081,-0l0.37,-0l-0,-0.076l-0.138,-0l0,-0.437l-0.012,-0.012l-0.22,0.011l-0,0.075l0.138,0l-0,0.363l-0.138,-0l-0,0.076Zm0.167,-0.641c0.041,-0 0.069,-0.025 0.069,-0.065c0,-0.04 -0.028,-0.064 -0.069,-0.064c-0.041,0 -0.07,0.024 -0.07,0.064c0,0.04 0.029,0.065 0.07,0.065Z" style="fill:#7ee787;fill-rule:nonzero;"/>
                </g>
                <g transform="matrix(9,0,0,9,37.58,84.484)">
                </g>
                <g transform="matrix(9,0,0,9,43.16,84.484)">
                    <path d="M0.313,-0l-0.001,-0.39c0.021,-0.033 0.051,-0.056 0.087,-0.056c0.029,0 0.057,0.014 0.057,0.065l0,0.381l0.089,-0l-0.001,-0.412c0,-0.077 -0.04,-0.113 -0.102,-0.113c-0.06,-0 -0.103,0.035 -0.128,0.085l-0.004,0c-0.009,-0.058 -0.046,-0.085 -0.1,-0.085c-0.06,-0 -0.104,0.035 -0.129,0.085l-0.008,0l-0.007,-0.074l-0.075,0l0,0.514l0.089,-0l0,-0.389c0.021,-0.034 0.05,-0.057 0.087,-0.057c0.029,0 0.057,0.014 0.057,0.065l-0,0.381l0.089,-0Z" style="fill:#7ee787;fill-rule:nonzero;"/>
                </g>
                <g transform="matrix(9,0,0,9,43.16,84.484)">
                </g>
                <text x="32px" y="84.484px" style="font-family:'MonaspaceNeon-Regular', 'Monaspace Neon', monospace;font-size:9px;fill:#7ee787;">m<tspan x="48.74px " y="84.484px ">e</tspan>Type</text>
                <text x="76.64px" y="84.484px" style="font-family:'MonaspaceNeon-Regular', 'Monaspace Neon', monospace;font-size:9px;fill:#e6edf3;">:</text>
                <g transform="matrix(9,0,0,9,93.38,84.484)">
                    <path d="M0.081,-0l0.37,-0l-0,-0.076l-0.138,-0l0,-0.437l-0.012,-0.012l-0.22,0.011l-0,0.075l0.138,0l-0,0.363l-0.138,-0l-0,0.076Zm0.167,-0.641c0.041,-0 0.069,-0.025 0.069,-0.065c0,-0.04 -0.028,-0.064 -0.069,-0.064c-0.041,0 -0.07,0.024 -0.07,0.064c0,0.04 0.029,0.065 0.07,0.065Z" style="fill:#a5d6ff;fill-rule:nonzero;"/>
                </g>
                <g transform="matrix(9,0,0,9,93.38,84.484)">
                </g>
                <g transform="matrix(9,0,0,9,98.96,84.484)">
                    <path d="M0.313,-0l-0.001,-0.39c0.021,-0.033 0.051,-0.056 0.087,-0.056c0.029,0 0.057,0.014 0.057,0.065l0,0.381l0.089,-0l-0.001,-0.412c0,-0.077 -0.04,-0.113 -0.102,-0.113c-0.06,-0 -0.103,0.035 -0.128,0.085l-0.004,0c-0.009,-0.058 -0.046,-0.085 -0.1,-0.085c-0.06,-0 -0.104,0.035 -0.129,0.085l-0.008,0l-0.007,-0.074l-0.075,0l0,0.514l0.089,-0l0,-0.389c0.021,-0.034 0.05,-0.057 0.087,-0.057c0.029,0 0.057,0.014 0.057,0.065l-0,0.381l0.089,-0Z" style="fill:#a5d6ff;fill-rule:nonzero;"/>
                </g>
                <g transform="matrix(9,0,0,9,98.96,84.484)">
                </g>
                <text x="87.8px" y="84.484px" style="font-family:'MonaspaceNeon-Regular', 'Monaspace Neon', monospace;font-size:9px;fill:#a5d6ff;">&quot;<tspan x="104.54px " y="84.484px ">a</tspan>ge/webp&quot;</text>
                <text x="32px" y="97.984px" style="font-family:'MonaspaceNeon-Regular', 'Monaspace Neon', monospace;font-size:9px;fill:#7ee787;">blob</text>
                <text x="54.32px" y="97.984px" style="font-family:'MonaspaceNeon-Regular', 'Monaspace Neon', monospace;font-size:9px;fill:#e6edf3;">:</text>
                <g transform="matrix(9,0,0,9,71.06,111.484)">
                    <path d="M0.013,-0.514l0.136,0.514l0.078,-0l0.109,-0.313l0.006,-0l0.104,0.313l0.082,-0l0.136,-0.514l-0.088,0l-0.094,0.372l-0.009,-0l-0.099,-0.296l-0.061,0l-0.104,0.296l-0.009,-0l-0.095,-0.372l-0.092,0Z" style="fill:#a5d6ff;fill-rule:nonzero;"/>
                </g>
                <g transform="matrix(9,0,0,9,71.06,111.484)">
                </g>
                <g transform="matrix(9,0,0,9,76.64,111.484)">
                    <path d="M0.561,-0.708l-0,-0.084c-0.024,-0.007 -0.047,-0.011 -0.078,-0.011c-0.114,-0 -0.203,0.053 -0.203,0.224l-0,0.065l-0.126,0l-0,0.076l0.126,0l-0,0.359l-0.105,-0l-0,0.079l0.342,0l0,-0.079l-0.142,-0l-0,-0.359l0.174,0l-0,-0.076l-0.174,0l-0,-0.079c-0,-0.112 0.052,-0.125 0.11,-0.125c0.033,-0 0.05,0.004 0.076,0.01Z" style="fill:#a5d6ff;fill-rule:nonzero;"/>
                </g>
                <g transform="matrix(9,0,0,9,76.64,111.484)">
                </g>
                <text x="32px" y="111.484px" style="font-family:'MonaspaceNeon-Regular', 'Monaspace Neon', monospace;font-size:9px;fill:#a5d6ff;">&quot;UklGRq<tspan x="82.22px " y="111.484px ">A</tspan>QBXRUJQVlA4TJ8fAQAvP8E7AE1AciRJkoJH5lAgz/</text>
                <text x="32px" y="124.984px" style="font-family:'MonaspaceNeon-Regular', 'Monaspace Neon', monospace;font-size:9px;fill:#a5d6ff;">7g6un2DlH9H8CutN5S7q789nvj7J6f0vSnc9L6iYf5qBMUlZd6e</text>
                <g transform="matrix(9,0,0,9,177.08,138.484)">
                    <path d="M0.397,-0l-0.001,-0.39c0.021,-0.033 0.05,-0.056 0.087,-0.056c0.029,0 0.057,0.014 0.057,0.065l-0,0.381l0.089,-0l-0.001,-0.412c-0,-0.077 -0.04,-0.113 -0.102,-0.113c-0.06,-0 -0.103,0.035 -0.128,0.085l-0.004,0c-0.009,-0.058 -0.046,-0.085 -0.1,-0.085c-0.06,-0 -0.104,0.035 -0.129,0.085l-0.008,0l-0.007,-0.074l-0.074,0l-0,0.514l0.088,-0l-0,-0.389c0.021,-0.033 0.05,-0.057 0.087,-0.057c0.029,0 0.057,0.014 0.057,0.065l-0,0.381l0.089,-0Z" style="fill:#a5d6ff;fill-rule:nonzero;"/>
                </g>
                <g transform="matrix(9,0,0,9,177.08,138.484)">
                </g>
                <g transform="matrix(9,0,0,9,182.66,138.484)">
                    <path d="M0.165,-0.59l0,0.096c0.037,-0 0.089,-0.033 0.132,-0.082l0,0.494l-0.15,-0l-0,0.082l0.407,-0l-0,-0.082l-0.16,-0l0,-0.648l-0.097,-0c-0.018,0.076 -0.112,0.14 -0.132,0.14Z" style="fill:#a5d6ff;fill-rule:nonzero;"/>
                </g>
                <g transform="matrix(9,0,0,9,182.66,138.484)">
                </g>
                <g transform="matrix(9,0,0,9,299.84,138.484)">
                    <path d="M0.016,-0.73l0.128,0.73l0.08,-0l0.108,-0.462l0.006,0l0.104,0.462l0.086,-0l0.127,-0.73l-0.088,-0l-0.091,0.536l-0.007,-0l-0.093,-0.414l-0.072,-0l-0.097,0.414l-0.008,-0l-0.091,-0.536l-0.092,-0Z" style="fill:#a5d6ff;fill-rule:nonzero;"/>
                </g>
                <g transform="matrix(9,0,0,9,299.84,138.484)">
                </g>
                <g transform="matrix(9,0,0,9,305.42,138.484)">
                    <path d="M0.435,0.016c0.037,0.001 0.079,-0.006 0.106,-0.015l0,-0.084c-0.028,0.007 -0.06,0.014 -0.097,0.014c-0.068,0 -0.095,-0.02 -0.095,-0.119l0,-0.25l0.187,0l0,-0.076l-0.187,0l0,-0.161l-0.094,0l-0,0.161l-0.118,0l-0,0.076l0.118,0l-0,0.255c-0,0.166 0.057,0.198 0.18,0.199Z" style="fill:#a5d6ff;fill-rule:nonzero;"/>
                </g>
                <g transform="matrix(9,0,0,9,305.42,138.484)">
                </g>
                <text x="32px" y="138.484px" style="font-family:'MonaspaceNeon-Regular', 'Monaspace Neon', monospace;font-size:9px;fill:#a5d6ff;">4OtI4qjh6kKqmqopNtfIpRENW8<tspan x="188.24px " y="138.484px ">S</tspan>VcXUncquyu9ZamqSSun<tspan x="311px " y="138.484px ">R</tspan></text>
                <g transform="matrix(9,0,0,9,98.96,151.984)">
                    <path d="M0.397,-0l-0.001,-0.39c0.021,-0.033 0.05,-0.056 0.087,-0.056c0.029,0 0.057,0.014 0.057,0.065l-0,0.381l0.089,-0l-0.001,-0.412c-0,-0.077 -0.04,-0.113 -0.102,-0.113c-0.06,-0 -0.103,0.035 -0.128,0.085l-0.004,0c-0.009,-0.058 -0.046,-0.085 -0.1,-0.085c-0.06,-0 -0.104,0.035 -0.129,0.085l-0.008,0l-0.007,-0.074l-0.074,0l-0,0.514l0.088,-0l-0,-0.389c0.021,-0.033 0.05,-0.057 0.087,-0.057c0.029,0 0.057,0.014 0.057,0.065l-0,0.381l0.089,-0Z" style="fill:#a5d6ff;fill-rule:nonzero;"/>
                </g>
                <g transform="matrix(9,0,0,9,98.96,151.984)">
                </g>
                <g transform="matrix(9,0,0,9,104.54,151.984)">
                    <path d="M0.435,0.016c0.037,0.001 0.079,-0.006 0.106,-0.015l0,-0.084c-0.028,0.007 -0.06,0.014 -0.097,0.014c-0.068,0 -0.095,-0.02 -0.095,-0.119l0,-0.25l0.187,0l0,-0.076l-0.187,0l0,-0.161l-0.094,0l-0,0.161l-0.118,0l-0,0.076l0.118,0l-0,0.255c-0,0.166 0.057,0.198 0.18,0.199Z" style="fill:#a5d6ff;fill-rule:nonzero;"/>
                </g>
                <g transform="matrix(9,0,0,9,104.54,151.984)">
                </g>
                <g transform="matrix(9,0,0,9,249.62,151.984)">
                    <path d="M0.071,-0.73l0,0.73l0.08,-0l0,-0.587l0.006,0l0.162,0.385l0.038,-0l0.161,-0.385l0.007,0l0,0.587l0.082,-0l-0,-0.73l-0.1,-0l-0.163,0.379l-0.006,-0l-0.163,-0.379l-0.104,-0Z" style="fill:#a5d6ff;fill-rule:nonzero;"/>
                </g>
                <g transform="matrix(9,0,0,9,249.62,151.984)">
                </g>
                <g transform="matrix(9,0,0,9,255.2,151.984)">
                    <path d="M0.165,-0.59l0,0.096c0.037,-0 0.089,-0.033 0.132,-0.082l0,0.494l-0.15,-0l-0,0.082l0.407,-0l-0,-0.082l-0.16,-0l0,-0.648l-0.097,-0c-0.018,0.076 -0.112,0.14 -0.132,0.14Z" style="fill:#a5d6ff;fill-rule:nonzero;"/>
                </g>
                <g transform="matrix(9,0,0,9,255.2,151.984)">
                </g>
                <g transform="matrix(9,0,0,9,311,151.984)">
                </g>
                <text x="32px" y="151.984px" style="font-family:'MonaspaceNeon-Regular', 'Monaspace Neon', monospace;font-size:9px;fill:#a5d6ff;">afBe8RnRqsQO<tspan x="110.12px " y="151.984px ">P</tspan>0mqSdDoCbFZpRDzbATxPBLdr<tspan x="260.78px " y="151.984px ">l</tspan>GJT5H...</text>
            </g>
            <g id="Content7" serif:id="Content" transform="matrix(9,0,0,9,479.6,240)">
                <path d="M0.081,-0l0.37,-0l-0,-0.076l-0.138,-0l0,-0.437l-0.012,-0.012l-0.22,0.011l-0,0.075l0.138,0l-0,0.363l-0.138,-0l-0,0.076Zm0.167,-0.641c0.041,-0 0.069,-0.025 0.069,-0.065c0,-0.04 -0.028,-0.064 -0.069,-0.064c-0.041,0 -0.07,0.024 -0.07,0.064c0,0.04 0.029,0.065 0.07,0.065Z" style="fill:#8b949e;fill-rule:nonzero;"/>
            </g>
            <g transform="matrix(9,0,0,9,479.6,240)">
            </g>
            <g transform="matrix(9,0,0,9,485.18,240)">
                <path d="M0.313,-0l-0.001,-0.39c0.021,-0.033 0.051,-0.056 0.087,-0.056c0.029,0 0.057,0.014 0.057,0.065l0,0.381l0.089,-0l-0.001,-0.412c0,-0.077 -0.04,-0.113 -0.102,-0.113c-0.06,-0 -0.103,0.035 -0.128,0.085l-0.004,0c-0.009,-0.058 -0.046,-0.085 -0.1,-0.085c-0.06,-0 -0.104,0.035 -0.129,0.085l-0.008,0l-0.007,-0.074l-0.075,0l0,0.514l0.089,-0l0,-0.389c0.021,-0.034 0.05,-0.057 0.087,-0.057c0.029,0 0.057,0.014 0.057,0.065l-0,0.381l0.089,-0Z" style="fill:#8b949e;fill-rule:nonzero;"/>
            </g>
            <g transform="matrix(9,0,0,9,485.18,240)">
            </g>
            <g transform="matrix(9,0,0,9,513.08,240)">
                <path d="M0.277,-0.301c-0,-0.245 0.083,-0.38 0.192,-0.5l-0.078,-0c-0.105,0.104 -0.209,0.249 -0.209,0.5c-0,0.252 0.104,0.397 0.209,0.501l0.078,0c-0.109,-0.12 -0.192,-0.255 -0.192,-0.501Z" style="fill:#8b949e;fill-rule:nonzero;"/>
            </g>
            <g transform="matrix(9,0,0,9,513.08,240)">
            </g>
            <g transform="matrix(9,0,0,9,518.66,240)">
                <path d="M0.013,-0.73l0,0.73l0.08,-0l0,-0.587l0.006,0l0.162,0.385l0.038,-0l0.161,-0.385l0.007,0l0,0.587l0.082,-0l0,-0.73l-0.1,-0l-0.163,0.379l-0.006,-0l-0.162,-0.379l-0.105,-0Z" style="fill:#8b949e;fill-rule:nonzero;"/>
            </g>
            <g transform="matrix(9,0,0,9,518.66,240)">
            </g>
            <g transform="matrix(9,0,0,9,591.2,240)">
            </g>
            <text x="368px" y="240px" style="font-family:'MonaspaceNeon-Regular', 'Monaspace Neon', monospace;font-size:9px;fill:#8b949e;">ros2:///rgbd_camera/<tspan x="490.76px " y="240px ">a</tspan>ge <tspan x="524.24px " y="240px ">C</tspan>P Resource)</text>
            <g>
                <path d="M357.983,232.381c-0.406,-0.396 -1.063,-0.396 -1.47,-0l-3.921,3.845c-0.136,0.132 -0.355,0.132 -0.49,0c-0.065,-0.063 -0.102,-0.15 -0.102,-0.24c-0,-0.091 0.037,-0.178 0.102,-0.241l3.921,-3.845c0.678,-0.66 1.773,-0.66 2.45,-0c0.385,0.374 0.568,0.911 0.491,1.442c0.538,-0.077 1.081,0.101 1.47,0.481l0.02,0.02c0.325,0.315 0.508,0.749 0.508,1.202c-0,0.452 -0.183,0.886 -0.508,1.201l-3.546,3.478c-0.022,0.021 -0.034,0.05 -0.034,0.08c0,0.03 0.012,0.059 0.034,0.08l0.728,0.715c0.065,0.063 0.102,0.149 0.102,0.24c-0,0.09 -0.037,0.177 -0.102,0.24c-0.135,0.132 -0.354,0.132 -0.49,0l-0.728,-0.714c-0.152,-0.147 -0.237,-0.35 -0.237,-0.561c-0,-0.211 0.085,-0.413 0.237,-0.561l3.546,-3.478c0.195,-0.189 0.305,-0.449 0.305,-0.721c-0,-0.271 -0.11,-0.531 -0.305,-0.721l-0.02,-0.02c-0.406,-0.395 -1.062,-0.396 -1.469,-0.001l-2.922,2.865l-0.041,0.041c-0.135,0.132 -0.355,0.132 -0.49,-0c-0.065,-0.063 -0.102,-0.15 -0.102,-0.241c0,-0.09 0.037,-0.177 0.102,-0.24l2.963,-2.906c0.193,-0.189 0.303,-0.449 0.303,-0.719c-0,-0.272 -0.11,-0.532 -0.305,-0.721Z" style="fill:#8b949e;"/>
                <path d="M357.493,233.342c0.065,-0.063 0.102,-0.15 0.102,-0.24c-0,-0.091 -0.037,-0.178 -0.102,-0.241c-0.135,-0.132 -0.355,-0.132 -0.49,0l-2.9,2.844c-0.325,0.316 -0.508,0.75 -0.508,1.202c0,0.453 0.183,0.886 0.508,1.202c0.678,0.659 1.773,0.659 2.451,-0l2.9,-2.844c0.065,-0.063 0.101,-0.15 0.101,-0.241c0,-0.09 -0.036,-0.177 -0.101,-0.24c-0.136,-0.132 -0.355,-0.132 -0.491,-0l-2.9,2.844c-0.406,0.396 -1.063,0.396 -1.47,0c-0.195,-0.189 -0.304,-0.449 -0.304,-0.721c-0,-0.271 0.109,-0.532 0.304,-0.721l2.9,-2.844Z" style="fill:#8b949e;"/>
            </g>
            <path id="Divider3" serif:id="Divider" d="M344,248l304,-0" style="fill:none;stroke:#30363d;stroke-width:1px;stroke-linejoin:round;stroke-miterlimit:1.5;"/>
        </g>
        <path d="M640,224.74c4.418,-0 8,3.581 8,8c-0,24.007 -0,95.253 -0,119.26c0,4.418 -3.582,8 -8,8c-42.877,-0 -245.123,-0 -288,-0c-4.418,-0 -8,-3.582 -8,-8c-0,-24.007 -0,-95.253 -0,-119.26c-0,-4.419 3.582,-8 8,-8c42.877,-0 245.123,-0 288,-0Z" style="fill:none;stroke:#30363d;stroke-width:1px;stroke-linejoin:round;stroke-miterlimit:1.5;"/>
    </g>
</svg>
